<svg xmlns="http://www.w3.org/2000/svg" xml:space="preserve" width="45mm" height="64mm" viewBox="0 0 45 64"><defs><filter id="a" width="2.082" height="2.237" x="-.421" y="-.613" style="color-interpolation-filters:sRGB"><feGaussianBlur stdDeviation=".756"/></filter></defs><path d="M59.466 248.99H37.384l-3.766 3.25 2.677 3.267h22.06l3.779-3.261zM36.768 224.224c-.905.927-1.553 2.112-1.77 3.407l-2.545 15.154-1.12 6.666 1.773 2.164 4.49-3.875.791-4.671 2.369-13.977zM33.009 252.766l-2.611 2.253-.312 1.859-2.975 17.713c-.31 1.847.048 3.537.897 4.857l5.247-4.528c-.126-.268-.163-.604-.097-.995l2.914-17.184.033-.196zM33.844 275.479l-5.352 4.618c1.14 1.333 2.86 2.152 4.917 2.152H54.77c1.38 0 2.72-.524 3.81-1.386l-4.3-5.248H34.563q-.415-.002-.718-.136M62.646 252.87l-4.495 3.88-3.134 18.495 4.164 5.082c.932-.935 1.6-2.14 1.822-3.46l3.624-21.578zM67.986 225.038l-5.437 4.692q.118.362.037.846l-2.942 17.363 3.099 3.782 2.905-2.507 3.242-19.306c.311-1.853-.049-3.548-.904-4.87M41.231 222.25c-1.404 0-2.768.543-3.867 1.432l4.262 5.203 7.735-.001h11.824000000000002c.346 0 .635.075.863.211l5.452-4.704c-1.14-1.327-2.857-2.142-4.907-2.142h-12.08Z" style="color:#000;overflow:visible;fill:#474747;fill-opacity:1;fill-rule:evenodd;stroke:none;stroke-width:.100001;-inkscape-stroke:none;paint-order:fill markers stroke;stop-color:#000" transform="translate(-25.5 -220.25)"/><path d="m85.844 275.479-5.352 4.618c1.14 1.333 2.86 2.152 4.917 2.152h21.361c1.38 0 2.72-.524 3.81-1.386l-4.3-5.248H86.563q-.414-.002-.718-.136z" style="color:#000;font-variation-settings:normal;overflow:visible;vector-effect:none;fill:#00e4ff;fill-opacity:1;fill-rule:evenodd;stroke:#0090ff;stroke-width:4;stroke-linecap:butt;stroke-linejoin:miter;stroke-miterlimit:4;stroke-dasharray:none;stroke-dashoffset:0;stroke-opacity:.357895;-inkscape-stroke:none;paint-order:fill markers stroke;filter:url(#a);stop-color:#000" transform="translate(-25.5 -220.25)"/></svg>