<svg xmlns="http://www.w3.org/2000/svg" xml:space="preserve" width="51.997" height="99.479" style="shape-rendering:geometricPrecision;text-rendering:geometricPrecision;image-rendering:optimizeQuality;fill-rule:evenodd;clip-rule:evenodd" viewBox="0 0 4.502 8.613"><defs><style>.fil1{fill:red}</style></defs><g id="Layer_x0020_1"><g id="_176680920"><path id="_176681496" d="M0 0h4.502v8.613H0z" style="fill:#000"/><path id="_176681424" d="m.157 0 1.242 1.218h1.72L4.344 0z" class="fil1"/><path id="_176681352" d="m.157 8.612 1.242-1.217h1.72l1.226 1.218z" class="fil1"/><path id="_176681280" d="M4.5 8.495 3.285 7.253v-1.72l1.218-1.227z" class="fil1"/><path id="_176681208" d="M4.5 4.306 3.285 3.064v-1.72L4.502.119z" class="fil1"/><path id="_176681112" d="m0 8.495 1.218-1.242v-1.72L0 4.306z" class="fil1"/><path id="_176681040" d="m0 4.306 1.218-1.242v-1.72L0 .119z" class="fil1"/><path id="_176680944" d="m.157 4.277 1.242.706h1.72l1.226-.707-1.227-.707h-1.72zh3.909z" style="fill:#600000"/></g></g></svg>