<svg xmlns="http://www.w3.org/2000/svg" xml:space="preserve" width="52.339" height="99.923" style="shape-rendering:geometricPrecision;text-rendering:geometricPrecision;image-rendering:optimizeQuality;fill-rule:evenodd;clip-rule:evenodd" viewBox="0 0 4.874 9.306"><defs><style>.fil1{fill:red}.fil2{fill:#600000}</style></defs><g id="Layer_x0020_1"><g id="_176797176"><path id="_176797752" d="M0 0h4.874v9.306H0z" style="fill:#000"/><path id="_176797680" d="M.184.001 1.52 1.31h1.85L4.69 0z" class="fil1"/><path id="_176797608" d="M.184 9.305 1.52 7.996h1.85l1.32 1.31z" class="fil1"/><path id="_176797536" d="M4.873 9.159 3.565 7.823v-1.85l1.31-1.32z" class="fil2"/><path id="_176797464" d="M4.873 4.653 3.565 3.317v-1.85l1.31-1.32z" class="fil1"/><path id="_176797368" d="M.001 9.159 1.31 7.823v-1.85L0 4.653z" class="fil1"/><path id="_176797296" d="M.001 4.653 1.31 3.317v-1.85L0 .147z" class="fil2"/><path id="_176797200" d="m.184 4.62 1.336.761h1.85l1.32-.76-1.32-.761H1.52zH4.39z" class="fil1"/></g></g></svg>