<svg xmlns="http://www.w3.org/2000/svg" xml:space="preserve" width="51.997" height="99.479" style="shape-rendering:geometricPrecision;text-rendering:geometricPrecision;image-rendering:optimizeQuality;fill-rule:evenodd;clip-rule:evenodd" viewBox="0 0 2.36 4.515"><defs><style>.fil1{fill:red}.fil2{fill:#600000}</style></defs><g id="Layer_x0020_1"><g id="_176797824"><path id="_176798400" d="M0 0h2.36v4.515H0z" style="fill:#000"/><path id="_176798328" d="m.082 0 .651.638h.902L2.278 0z" class="fil1"/><path id="_176798256" d="m.082 4.514.651-.638h.902l.643.639z" class="fil1"/><path id="_176798184" d="m2.36 4.453-.638-.651v-.901l.638-.644z" class="fil1"/><path id="_176798112" d="m2.36 2.257-.638-.65V.704L2.36.062z" class="fil1"/><path id="_176798016" d="m0 4.453.638-.651v-.901L0 2.257z" class="fil2"/><path id="_176797944" d="m0 2.257.638-.65V.704L0 .062z" class="fil2"/><path id="_176797848" d="m.082 2.242.651.37h.902l.643-.37-.643-.371H.733zH2.13z" class="fil1"/></g></g></svg>