<svg xmlns="http://www.w3.org/2000/svg" xml:space="preserve" width="51.997" height="99.479" style="shape-rendering:geometricPrecision;text-rendering:geometricPrecision;image-rendering:optimizeQuality;fill-rule:evenodd;clip-rule:evenodd" viewBox="0 0 1.566 2.995"><defs><style>.fil2{fill:red}.fil1{fill:#600000}</style></defs><g id="Layer_x0020_1"><g id="_176796528"><path id="_176797104" d="M0 0h1.566v2.995H0z" style="fill:#000"/><path id="_176797032" d="m.054 0 .432.424h.599L1.51 0z" class="fil1"/><path id="_176796960" d="m.054 2.995.432-.423h.599l.426.423z" class="fil1"/><path id="_176796888" d="m1.565 2.955-.423-.432v-.598l.424-.427z" class="fil2"/><path id="_176796816" d="m1.565 1.498-.423-.432V.468L1.566.04z" class="fil2"/><path id="_176796720" d="m0 2.955.424-.432v-.598L0 1.498z" class="fil1"/><path id="_176796648" d="m0 1.498.424-.432V.468L0 .04z" class="fil2"/><path id="_176796552" d="m.054 1.487.432.246h.599l.426-.246-.426-.246H.486zh1.36z" class="fil2"/></g></g></svg>