<svg xmlns="http://www.w3.org/2000/svg" xml:space="preserve" width="51.997" height="99.479" style="shape-rendering:geometricPrecision;text-rendering:geometricPrecision;image-rendering:optimizeQuality;fill-rule:evenodd;clip-rule:evenodd" viewBox="0 0 1.171 2.241"><defs><style>.fil1{fill:red}.fil2{fill:#600000}</style></defs><g id="Layer_x0020_1"><g id="_176683512"><path id="_176684088" d="M0 0h1.171v2.241H0z" style="fill:#000"/><path id="_176684016" d="m.04 0 .324.317h.447L1.131 0z" class="fil1"/><path id="_176683944" d="m.04 2.241.324-.317h.447l.32.317z" class="fil1"/><path id="_176683872" d="m1.171 2.21-.316-.323V1.44l.316-.32z" class="fil1"/><path id="_176683800" d="M1.171 1.12.855.798V.35L1.17.03z" class="fil2"/><path id="_176683704" d="m0 2.21.317-.323V1.44L0 1.12z" class="fil2"/><path id="_176683632" d="M0 1.12.317.798V.35L0 .03z" class="fil1"/><path id="_176683536" d="m.04 1.113.324.184h.447l.32-.184L.81.929H.364zh1.017z" class="fil1"/></g></g></svg>