<svg xmlns="http://www.w3.org/2000/svg" xml:space="preserve" width="51.997" height="99.479" style="shape-rendering:geometricPrecision;text-rendering:geometricPrecision;image-rendering:optimizeQuality;fill-rule:evenodd;clip-rule:evenodd" viewBox="0 0 0.936 1.79"><defs><style>.fil1{fill:red}</style></defs><g id="Layer_x0020_1"><g id="_176682864"><path id="_176683440" d="M0 0h.936v1.79H0z" style="fill:#000"/><path id="_176683368" d="M.033 0 .29.253h.357L.903 0z" class="fil1"/><path id="_176683296" d="m.033 1.79.258-.253h.357l.255.253z" class="fil1"/><path id="_176683224" d="m.936 1.766-.253-.258V1.15L.936.895z" class="fil1"/><path id="_176683152" d="M.936.895.683.637V.28L.936.024z" style="fill:#600000"/><path id="_176683056" d="m0 1.766.253-.258V1.15L0 .895z" class="fil1"/><path id="_176682984" d="M0 .895.253.637V.28L0 .024z" class="fil1"/><path id="_176682888" d="m.033.889.258.147h.357L.903.889.648.742H.291zh.812z" class="fil1"/></g></g></svg>