<svg xmlns="http://www.w3.org/2000/svg" xml:space="preserve" width="51.997" height="99.479" style="shape-rendering:geometricPrecision;text-rendering:geometricPrecision;image-rendering:optimizeQuality;fill-rule:evenodd;clip-rule:evenodd" viewBox="0 0 0.779 1.491"><defs><style>.fil1{fill:red}.fil2{fill:#600000}</style></defs><g id="Layer_x0020_1"><g id="_176682216"><path id="_176682792" d="M0 0h.779v1.491H0z" style="fill:#000"/><path id="_176682720" d="m.027 0 .215.21H.54L.752 0z" class="fil1"/><path id="_176682648" d="m.027 1.49.215-.21H.54l.212.21z" class="fil2"/><path id="_176682576" d="m.779 1.47-.21-.215V.958l.21-.213z" class="fil1"/><path id="_176682504" d="M.779.745.569.53V.233L.778.02z" class="fil1"/><path id="_176682408" d="m0 1.47.21-.215V.958L0 .745z" class="fil2"/><path id="_176682336" d="M0 .745.21.53V.233L0 .02z" class="fil2"/><path id="_176682240" d="m.027.74.215.122H.54L.752.74.54.618H.242zh.677z" class="fil2"/></g></g></svg>