<svg xmlns="http://www.w3.org/2000/svg" xml:space="preserve" width="51.997" height="99.479" style="shape-rendering:geometricPrecision;text-rendering:geometricPrecision;image-rendering:optimizeQuality;fill-rule:evenodd;clip-rule:evenodd" viewBox="0 0 0.667 1.277"><defs><style>.fil1{fill:red}</style></defs><g id="Layer_x0020_1"><g id="_176681568"><path id="_176682144" d="M0 0h.667v1.277H0z" style="fill:#000"/><path id="_176682072" d="m.023 0 .184.18h.255L.644 0z" class="fil1"/><path id="_176682000" d="m.023 1.277.184-.18h.255l.182.18z" class="fil1"/><path id="_176681928" d="m.667 1.26-.18-.185V.82l.18-.182z" class="fil1"/><path id="_176681856" d="M.667.638.487.454V.2l.18-.182z" class="fil1"/><path id="_176681760" d="m0 1.26.18-.185V.82L0 .638z" class="fil1"/><path id="_176681688" d="M0 .638.18.454V.2L0 .017z" class="fil1"/><path id="_176681592" d="m.023.634.184.105h.255L.644.634.462.529H.207zh.58z" class="fil1"/></g></g></svg>