<svg xmlns="http://www.w3.org/2000/svg" xml:space="preserve" width="51.997" height="99.479" style="shape-rendering:geometricPrecision;text-rendering:geometricPrecision;image-rendering:optimizeQuality;fill-rule:evenodd;clip-rule:evenodd" viewBox="0 0 0.585 1.12"><defs><style>.fil1{fill:red}</style></defs><g id="Layer_x0020_1"><g id="_170423568"><path id="_170424144" d="M0 0h.585v1.12H0z" style="fill:#000"/><path id="_170424072" d="m.02 0 .162.158h.223L.565 0z" class="fil1"/><path id="_170424000" d="M.02 1.12.182.962h.223l.16.158z" class="fil1"/><path id="_170423928" d="M.585 1.105.427.943V.72L.585.56z" class="fil1"/><path id="_170423856" d="M.585.56.427.398V.175l.158-.16z" class="fil1"/><path id="_170423760" d="M0 1.105.158.943V.72L0 .56z" style="fill:#600000"/><path id="_170423688" d="M0 .56.158.398V.175L0 .015z" class="fil1"/><path id="_170423592" d="m.02.556.162.092h.223l.16-.092-.16-.092H.182zH.53z" class="fil1"/></g></g></svg>