<svg xmlns="http://www.w3.org/2000/svg" xml:space="preserve" width="45mm" height="64mm"
    viewBox="0 0 45 64"><defs><filter id="a" width="2.082" height="2.237" x="-.421" y="-.613" style="color-interpolation-filters:sRGB"><feGaussianBlur stdDeviation=".756"/></filter></defs><path d="m546.5 253.127-2.611 2.253-.312 1.86-2.975 17.712c-.31 1.847.047 3.537.896 4.857l5.248-4.528c-.127-.267-.163-.604-.097-.995l2.914-17.184.033-.195zM547.334 275.84l-5.352 4.618c1.14 1.333 2.86 2.153 4.917 2.153h21.362000000000002c1.38 0 2.72-.524 3.81-1.387l-4.3-5.248h-19.717999999999996c-.277 0-.517-.048-.719-.136" style="color:#000;display:inline;overflow:visible;fill:#400202;fill-opacity:1;fill-rule:evenodd;stroke:none;stroke-width:.100001;-inkscape-stroke:none;paint-order:fill markers stroke;stop-color:#000" transform="translate(-538.991 -220.61)"/><path d="M524.592 248.651H502.51l-3.766 3.25 2.677 3.268h22.06l3.779-3.262zM498.97 275.14l-5.352 4.618c1.14 1.333 2.86 2.153 4.916 2.153h21.362000000000002c1.38 0 2.72-.525 3.81-1.387l-4.3-5.248h-19.717999999999996q-.415-.002-.718-.136zM533.112 224.7l-5.437 4.691c.077.24.092.525.037.846L524.77 247.6l3.099 3.782 2.905-2.507 3.242-19.306c.311-1.853-.049-3.548-.904-4.87zM506.357 221.91c-1.404 0-2.768.544-3.867 1.433l4.262 5.203h19.559c.346 0 .635.074.863.21l5.452-4.704c-1.14-1.326-2.857-2.141-4.907-2.141h-12.08zM572.956 249.352h-22.081l-3.767 3.25 2.677 3.267h22.06l3.78-3.262zM550.258 224.586c-.905.927-1.552 2.112-1.77 3.407l-2.545 15.154-1.12 6.666 1.773 2.164 4.49-3.875.792-4.672 2.368-13.977zM576.137 253.233l-4.495 3.878-3.134 18.495 4.163 5.082c.932-.934 1.601-2.14 1.823-3.46l3.624-21.577zM581.477 225.4l-5.437 4.692q.117.362.037.845l-2.942 17.363 3.098 3.782 2.906-2.507 3.242-19.305c.311-1.853-.05-3.549-.904-4.87zM554.722 222.61c-1.404 0-2.768.544-3.868 1.434l4.263 5.202h19.558c.346 0 .636.075.863.211l5.452-4.705c-1.14-1.326-2.856-2.141-4.907-2.141h-12.079z" style="color:#000;font-variation-settings:normal;overflow:visible;vector-effect:none;fill:red;fill-opacity:1;fill-rule:evenodd;stroke:#c70000;stroke-width:4;stroke-linecap:butt;stroke-linejoin:miter;stroke-miterlimit:4;stroke-dasharray:none;stroke-dashoffset:0;stroke-opacity:.357895;-inkscape-stroke:none;paint-order:fill markers stroke;filter:url(#a);stop-color:#000" transform="translate(-538.991 -220.61)"/><path d="M572.956 249.351v.001h-22.081l-3.767 3.25 2.677 3.267h22.06l3.78-3.262zM550.258 224.586c-.905.927-1.552 2.112-1.77 3.407l-2.545 15.154-1.12 6.666 1.773 2.164 4.49-3.875.792-4.672 2.368-13.977zM576.137 253.233l-4.495 3.878-3.134 18.495 4.163 5.082c.932-.934 1.601-2.14 1.823-3.46l3.624-21.577zM581.477 225.4l-5.437 4.692q.117.362.037.845l-2.942 17.363 3.098 3.782 2.906-2.507 3.242-19.305c.311-1.853-.05-3.549-.904-4.87M554.722 222.61c-1.404 0-2.768.544-3.868 1.434l4.263 5.202h19.558c.346 0 .636.075.863.211l5.452-4.705c-1.14-1.326-2.856-2.141-4.907-2.141h-12.079z" style="color:#000;font-variation-settings:normal;overflow:visible;vector-effect:none;fill:red;fill-opacity:1;fill-rule:evenodd;stroke:none;stroke-width:2;stroke-linecap:butt;stroke-linejoin:miter;stroke-miterlimit:4;stroke-dasharray:none;stroke-dashoffset:0;stroke-opacity:.357895;-inkscape-stroke:none;paint-order:fill markers stroke;stop-color:#000" transform="translate(-538.991 -220.61)"/></svg>