<svg xmlns="http://www.w3.org/2000/svg" xml:space="preserve" width="333" height="333"
    viewBox="0 0 88.106 88.106">

    <path d="m27.42 13.332-2.84 2.952-2.841 2.951.035 5.96.035 5.958 6.22.034 6.22.036v-8.4l.702-.71.702-.711h16.873l.667.624.667.623v14.71l-.635.644-.633.643-4.175-.004-5.761-.003-2.788 2.862-2.788 2.86-.003 5.55-.003 8.195 6.22-.035 6.22-.035.037-6.275.035-3.629.632-.641.631-.64h9.939l2.79-2.793 2.79-2.792V19.148l-2.792-2.907-2.79-2.907H43.309zm9.65 51.078v10.364h12.512V64.41Z" fill="#000" /></svg>